<svg xmlns="http://www.w3.org/2000/svg" xmlns:xlink="http://www.w3.org/1999/xlink" viewBox="0 0 500 500"><defs><style>.cls-1{fill:#fac885;}.cls-2{fill:#dba760;}.cls-10,.cls-2,.cls-5,.cls-6,.cls-7,.cls-8,.cls-9{fill-rule:evenodd;}.cls-3{fill:#fad095;}.cls-4{fill:#fbe1bf;}.cls-15,.cls-5{fill:#fff;}.cls-6{fill:url(#GradientFill_1);}.cls-7{fill:#f1c384;}.cls-8{fill:#77c7ad;}.cls-9{fill:#2cad88;}.cls-10,.cls-11,.cls-14{fill:#603913;}.cls-11{font-size:47.18px;}.cls-11,.cls-14,.cls-15,.cls-19{font-family:MyriadPro-Regular, Myriad Pro;}.cls-12{letter-spacing:0em;}.cls-13{letter-spacing:0em;}.cls-14{font-size:86.2px;}.cls-15{font-size:30.12px;}.cls-16{letter-spacing:-0.08em;}.cls-17{letter-spacing:-0.01em;}.cls-18{letter-spacing:-0.02em;}.cls-19{font-size:12px;}.cls-20{letter-spacing:-0.01em;}.cls-21{letter-spacing:-0.01em;}.cls-22{letter-spacing:0em;}.cls-23{letter-spacing:0.01em;}.cls-24{letter-spacing:-0.01em;}.cls-25{letter-spacing:-0.01em;}.cls-26{letter-spacing:-0.01em;}.cls-27{letter-spacing:0.02em;}.cls-28{letter-spacing:0em;}.cls-29{letter-spacing:-0.01em;}</style><linearGradient id="GradientFill_1" x1="248.47" y1="319.51" x2="244.34" y2="115.98" gradientUnits="userSpaceOnUse"><stop offset="0" stop-color="#fac885"/><stop offset="1" stop-color="#fff"/></linearGradient></defs><g id="BACKGROUND"><rect class="cls-1" width="500" height="500"/></g><g id="OBJECTS"><path class="cls-2" d="M68.1,233.07l.09.54c.42.77.08,1.69.51,2.45a1.23,1.23,0,0,0,.11.84c.54,1.58.21,3.29.75,4.87a13.7,13.7,0,0,0,.36,3.24,20.76,20.76,0,0,1,.51,4c.44,4.28.85,8.58,1.26,12.87a3.26,3.26,0,0,1,0,1.49,7,7,0,0,0,.19,2.36c-.24,1.54.41,3.06.17,4.6a2.1,2.1,0,0,0,.08,1.14c-.21,1.86.49,3.67.26,5.52a1.22,1.22,0,0,0,0,.8c-.22.54.16,1.11-.1,1.64a.18.18,0,0,0,0,.24,3.89,3.89,0,0,0,.27,2.47h0c.18.38-.09.63-.25.93v0a.76.76,0,0,1-.31.33l0,0c-.1.26-.4.23-.58.39l0,0a4.59,4.59,0,0,1-2.71.29l-.09,0-.09,0c-.74-.26-1.51.28-2.24-.08h0c-.81-.31-1.65.31-2.46-.08h0c-3.22,0-6.39.58-9.59.8-.54,0-1.08.27-1.62,0l-.09-.05-.09.06c-.53-.22-1.11.17-1.65-.11h0c-.27-.26-.67,0-.93-.23h0a1.81,1.81,0,0,1-.34-.28h0c-.3-.27-.17-.7-.38-1,0-.08,0-.13,0-.17a.76.76,0,0,1-.1-.9,4.71,4.71,0,0,0,0-.75c-.31-3.24-.64-6.49-1-9.74,0-.2-.07-.39-.11-.59a72.64,72.64,0,0,0-1-9.77,2.62,2.62,0,0,0-.21-1.46c-.14-.17-.13-.42-.3-.59h0a.29.29,0,0,0-.35,0h0a1.39,1.39,0,0,1-1.48.12v0c-1-.27-2,.34-3.06,0h0c-.8-.33-1.64.3-2.45-.08h0c-.59-.31-1.25.23-1.85-.13h0c-.38-.28-.89.17-1.24-.22h0c-.21-.09-.47,0-.67-.19h0c-.24-.28-.68.07-.91-.27h0c-.21-.1-.49,0-.66-.23h0c-.2-.13-.48-.05-.64-.27l0,0a1,1,0,0,1-.37-.24h0a2.85,2.85,0,0,0-.33-.25h0a2.6,2.6,0,0,0-.32-.26h0a2.69,2.69,0,0,0-.32-.27h0a2.69,2.69,0,0,0-.32-.27h0l-.32-.26h0l-.32-.28h0c-.11-.1-.25-.17-.31-.32l0,0c-.37-.21-.17-.67-.42-.94,0-.17-.07-.34-.1-.52-.43-.76-.07-1.68-.51-2.44a1.28,1.28,0,0,0-.1-.84c-.55-1.49-.21-3.11-.72-4.61a4.84,4.84,0,0,0-.2-1.69c-.59-1.77-.25-3.69-.81-5.47a4.83,4.83,0,0,0-.2-1.73,87.63,87.63,0,0,1-1.07-10.84,1.93,1.93,0,0,0-.06-1.09c.24-.75-.23-1.51,0-2.26a.17.17,0,0,0,0-.24c.28-.51-.19-1.09.14-1.6v0c.24-.28-.07-.69.24-1v0c.12-.2,0-.5.28-.64l0,0a.59.59,0,0,1,.27-.38v0a.63.63,0,0,1,.29-.35l0,0a.67.67,0,0,1,.29-.35l0,0a.67.67,0,0,1,.29-.35l0,0a.79.79,0,0,1,.29-.36l0,0A.69.69,0,0,1,29,218l0,0a.54.54,0,0,1,.32-.34l0,0c.07-.28.39-.23.53-.42h0c.19-.21.46-.23.7-.34l.48-.13a5.37,5.37,0,0,1,2.39-.23h.55c.31.18.68,0,1,.16a.16.16,0,0,0,.22,0c.23.09.5,0,.72.21h0c.18.15.45.07.63.25h0c.19.16.48.06.63.29l0,0a.59.59,0,0,1,.36.28l0,0a.76.76,0,0,1,.35.29l0,0a.72.72,0,0,1,.35.29l0,0a.72.72,0,0,1,.35.29h0a.63.63,0,0,1,.35.29l0,0a.73.73,0,0,1,.36.29l0,0a.79.79,0,0,1,.36.29l0,0a.69.69,0,0,1,.35.3l0,0c.25.11.23.41.39.58v0c.4.32.12.89.43,1.25q.18,3.24.63,6.45a13,13,0,0,0,.41,4.07,1.28,1.28,0,0,0,.11.84c.43.65.06,1.49.49,2.14a.19.19,0,0,0,.06.24c.26.25.09.66.35.9h0c.34.18.1.65.42.85h0c.1.11.24.19.28.35l0,0a.42.42,0,0,1,.36.31l0,0a.64.64,0,0,1,.4.22h0c.18.16.44.08.62.21a.16.16,0,0,0,.22,0c.23.08.49.06.72.16h.61c.3-1.44-.39-2.84-.11-4.28a2.21,2.21,0,0,0-.09-1.14c.28-.93-.29-1.87,0-2.8v-.49c.14-.33,0-.72.15-1.05a.14.14,0,0,0,0-.2,3.68,3.68,0,0,1,.17-.73.16.16,0,0,0,0-.22c.1-.23.05-.49.19-.71a.12.12,0,0,0,0-.18.83.83,0,0,1,.19-.45c.08,0,.09-.1,0-.18a.78.78,0,0,1,.21-.46h0a1.06,1.06,0,0,0,.22-.33l0,0a.62.62,0,0,0,.24-.29l0,0a.62.62,0,0,0,.24-.29l0,0A.62.62,0,0,0,48,224l0,0a.62.62,0,0,0,.24-.29l0,0a.55.55,0,0,0,.23-.29l0,0a.62.62,0,0,0,.24-.29l0,0a.62.62,0,0,0,.24-.29l0,0a1.85,1.85,0,0,0,.28-.28h0c.15-.2.43-.18.58-.36h0a1.9,1.9,0,0,1,.7-.34l.47-.14c.29-.2.68-.09,1-.32l.83-.15c.77-.12,1.62-.69,2.16.4a20.26,20.26,0,0,0,4.46-.37c.22.1.47.06.68.17a.19.19,0,0,0,.23.05,1.5,1.5,0,0,1,.41.18.17.17,0,0,0,.22.07.9.9,0,0,1,.42.22h0a.94.94,0,0,0,.32.23l0,0a.62.62,0,0,0,.29.24l0,0a.57.57,0,0,0,.29.24l0,0a.55.55,0,0,0,.29.23l0,0a.62.62,0,0,0,.29.24l0,0a.62.62,0,0,0,.29.24l0,0a.62.62,0,0,0,.29.24l0,0a.6.6,0,0,0,.28.24l0,0a.68.68,0,0,0,.28.25l0,0a2.76,2.76,0,0,0,.29.3h0a.82.82,0,0,1,.31.33l0,0c.27.1.24.4.4.58l0,0c.25.14.24.44.38.65a.16.16,0,0,0,.09.21c.15.17.13.43.31.58h0c.3.25.14.68.38.95a.19.19,0,0,0,.06.23c.26.27.13.68.36,1a.14.14,0,0,0,0,.2c.4.45.08,1.1.44,1.55a.18.18,0,0,0,0,.23C68,231.58,67.68,232.42,68.1,233.07Z"/><path class="cls-2" d="M439.76,205.9h-.37c-.35.27-.81-.12-1.15.19h0c-.24.15-.55,0-.79.21h0c-.21.2-.55.06-.76.27h0a4.92,4.92,0,0,1-.45.24l0,0c-.18.24-.57.06-.71.37l.05,0a.59.59,0,0,0-.48.3l0,0a.83.83,0,0,0-.46.32l0,0a.92.92,0,0,0-.45.33l0,0a.84.84,0,0,0-.45.32l0,0a.92.92,0,0,0-.45.33l0,0a.77.77,0,0,0-.45.32l0,0a.74.74,0,0,0-.44.35l0,0a.53.53,0,0,0-.45.36l.06,0c-.36,0-.33.46-.58.6h0a.83.83,0,0,0-.42.48c0,.09,0,.15-.09.17-.23.18-.22.51-.45.69v0c-.39.28-.25.82-.55,1.14a.17.17,0,0,1-.08.24c-.54.63-.19,1.55-.7,2.19-.47,3.55-1.09,7.08-1.77,10.6,0,.3.16.62-.18.84h0a1.5,1.5,0,0,1-1.85,0c-.21-.21-.06-.53-.24-.75a.19.19,0,0,1,0-.27c-.24-1.28.56-2.48.28-3.76a2.72,2.72,0,0,1,.2-1.35c-.23-1.28.54-2.47.31-3.75l0-.62c-.23-.52.23-1.08-.08-1.6h0c-.27-.35.11-.81-.18-1.15h0c-.17-.24,0-.58-.27-.79l0,0a1.67,1.67,0,0,0-.28-.46h0c-.09-.14-.2-.28-.3-.42h0c-.1-.14-.19-.28-.3-.42h0c-.1-.14-.19-.28-.3-.42h0c-.09-.14-.2-.28-.3-.42h0l-.3-.42h0c-.1-.15-.19-.28-.3-.42h0a3.25,3.25,0,0,0-.31-.42h0c-.16-.27-.5-.26-.69-.49l-1.33-.21c-.27.12-.58,0-.85.17h0c-.19.23-.56.06-.73.33l0,0a.75.75,0,0,0-.46.31l0,0a.89.89,0,0,0-.44.32l0,0a1,1,0,0,0-.45.32l0,0a1,1,0,0,0-.45.32l0,0a1,1,0,0,0-.45.32l0,0a.72.72,0,0,0-.44.34l0,0a.6.6,0,0,0-.47.45.14.14,0,0,1-.14.17l-.35.32h0c-.26.14-.24.5-.5.65h0c-.24.18-.25.5-.46.7l0,0c-.42.28-.28.82-.56,1.16l0,.12-.09.08c-.58.62-.2,1.56-.72,2.2a2.44,2.44,0,0,1-.28,1.35,7.13,7.13,0,0,0-.54,3.23,5.28,5.28,0,0,1-.3,2.09c.2,1.4-.56,2.71-.37,4.1a1.5,1.5,0,0,1-.13,1c.27,1-.44,2-.17,3a.67.67,0,0,1,0,.6c.23.66-.31,1.33,0,2,.08.07.08.14,0,.22.15.41-.14.87.13,1.27v0c.26.36-.13.82.19,1.16v0c.15.25.05.56.21.81h0c.2.22.08.54.24.77h0c.21.21.06.56.29.76v0l.21.44a.17.17,0,0,1,.07.23.65.65,0,0,0,.28.56l0,0a1.05,1.05,0,0,0,.3.45h0a4,4,0,0,0,.27.44h0a3.71,3.71,0,0,1,.28.41v0a2.7,2.7,0,0,1,.29.4v0a2.7,2.7,0,0,1,.29.4v0a2.34,2.34,0,0,1,.29.41h0a2.34,2.34,0,0,1,.29.41h0a3.91,3.91,0,0,1,.3.41h0c.11.13.2.28.32.4h0c.32.49.89.63,1.31,1h0c.18.25.5.27.73.44l0,0c.28.59,1,.21,1.37.66h0c.46.56,1.27.18,1.76.67l0,0c1.84.4.69,1.86,1,2.8a14.33,14.33,0,0,1-.53,3.51c.13,1.89-.77,3.67-.61,5.57a2.45,2.45,0,0,1-.17,1.31c.16,1.66-.7,3.22-.49,4.88a21.89,21.89,0,0,1-.68,4.25c.22,1.39-.6,2.7-.35,4.1a.12.12,0,0,1,0,.2c1.31.46.49,1.79,1,2.56h0a1,1,0,0,0,.36.41l0,0c.14.35.51.36.78.53l.07,0a20.65,20.65,0,0,1,5.57.95v0c.7.65,1.75.23,2.48.8l0,0c.69.68,1.75.23,2.47.82h0c.7.65,1.76.21,2.48.79v0a31.84,31.84,0,0,0,8.62,1.4l-.05,0a1.28,1.28,0,0,0,.9-.54h0c.54-.49.08-1.34.66-1.82l.09-.56a7.8,7.8,0,0,1,.58-3.41,11.65,11.65,0,0,1,.56-3.16c.74-1.62.47-3.47,1.19-5.1a3.53,3.53,0,0,1,.33-1.69c.27-1,.85-1.22,1.88-1,2.57.51,5.16.91,7.75,1.31.58.09,1.17.43,1.77.07h0c.38-.19.81.13,1.18-.13h0c.33-.3.81.13,1.13-.23h0c.26-.12.58,0,.81-.24h0c.25-.14.58,0,.8-.25l0,0a1.79,1.79,0,0,0,.46-.27h0a3.81,3.81,0,0,1,.41-.29h0a3.81,3.81,0,0,1,.41-.29h0a2.92,2.92,0,0,1,.4-.29h0a3.69,3.69,0,0,1,.4-.29h0a3.69,3.69,0,0,1,.4-.29h0c.13-.12.28-.2.4-.33h0c.27-.14.26-.49.5-.66h0c.37-.28.22-.81.53-1.12a.2.2,0,0,1,.09-.26c.53-.63.19-1.55.7-2.19.05-.21.1-.42.14-.63a15.78,15.78,0,0,0,.85-5,1.51,1.51,0,0,1,.12-1c-.26-.91.42-1.78.12-2.69a.21.21,0,0,1,0-.28c-.26-.77.34-1.52.07-2.3a.68.68,0,0,1,.05-.62c-.25-.78.34-1.54.06-2.33a.18.18,0,0,1,0-.25c-.09-.29,0-.63-.22-.89l0,0a2,2,0,0,0-.28-.46h0l-.3-.42h0l-.3-.42h0l-.3-.42h0l-.3-.41h0l-.3-.42h0a2.12,2.12,0,0,0-.33-.41l0,0c-.14-.28-.49-.26-.66-.5h0c-.2-.26-.53-.31-.8-.47l-.57-.2c-.55-.39-1.31-.16-1.85-.59l-.52-.09c-.52.23-1.06-.19-1.58,0a.18.18,0,0,1-.25,0,1.27,1.27,0,0,0-.54.21l0,0a1,1,0,0,1-.39.25l0,0a.74.74,0,0,1-.37.26l-.05,0a.81.81,0,0,1-.37.26l-.06,0a.68.68,0,0,1-.36.26l-.06,0a.68.68,0,0,1-.36.26l-.06,0a.93.93,0,0,1-.36.29l0,0-.4.33h0a1.16,1.16,0,0,0-.41.35l0,0c-.3.11-.29.48-.52.65h0c-.28.18-.3.53-.49.77a.2.2,0,0,1-.11.25c-.38.42-.18,1.06-.55,1.49a22,22,0,0,1-.65,3.78,1.28,1.28,0,0,1,.05.7c-.34,2.62-.39,2.57-3,2.08-1.08-.2-.87-.89-1-1.52a.17.17,0,0,1,0-.25c-.24-.91.39-1.77.14-2.68a9,9,0,0,1,.42-2.81c-.19-1.64.69-3.18.47-4.83a2.42,2.42,0,0,1,.18-1.3c.18-3.12,1-6.16,1.39-9.25a4.79,4.79,0,0,0,.19-2.13,2.59,2.59,0,0,1,.2-1.37c-.21-1.39.57-2.7.36-4.09,0-.21,0-.41.05-.62-.22-.53.21-1.08-.05-1.61a.18.18,0,0,1,0-.25,3.77,3.77,0,0,0-.15-.88.15.15,0,0,1,0-.23c-.06-.31,0-.65-.22-.92v0c-.12-.26,0-.6-.26-.81l0,0a3.82,3.82,0,0,0-.21-.46.15.15,0,0,1-.06-.22.88.88,0,0,0-.23-.58h0c-.2-.21,0-.59-.35-.74l0,0a.47.47,0,0,0-.32-.47l0,0a.55.55,0,0,0-.3-.48l0,0a.81.81,0,0,0-.31-.46l0,0a1,1,0,0,0-.32-.45l0,0a1,1,0,0,0-.32-.45l0,0a1,1,0,0,0-.32-.45l0,0a.87.87,0,0,0-.32-.45l0,0a.84.84,0,0,0-.33-.45l0,0a.6.6,0,0,0-.36-.43l0,.05c0-.33-.46-.29-.53-.58l-.05,0c-.14-.1-.21-.27-.36-.37l0,0c-.18-.31-.53-.33-.79-.5a.15.15,0,0,1-.21-.1c-.3-.34-.81-.2-1.12-.51a40.74,40.74,0,0,1-5.59-.93C440.57,206,440.15,205.73,439.76,205.9Z"/><circle class="cls-3" cx="250" cy="199.02" r="165.99" transform="translate(-34.69 53.89) rotate(-11.51)"/><circle class="cls-4" cx="250" cy="199.02" r="138.83" transform="translate(-15.19 20.74) rotate(-4.61)"/><path class="cls-5" d="M250,308.42c60.26,0,109.4-49.15,109.4-109.4a109.4,109.4,0,1,0-218.8,0C140.6,259.27,189.74,308.42,250,308.42Z"/><path class="cls-6" d="M0,289.59s255-54.42,500,0V500H0Z"/><path class="cls-7" d="M0,289.59s255-54.42,500,0v16.62c-56.25-24.92-158.21-41.35-212.19-29.81-68.64,14.68-105.64,10.26-178.57,7.37C56.57,281.68,17.6,290.89,0,296.16Z"/><path class="cls-2" d="M389.33,298.15q3.45.14,6.9.24c2.9.09,5.68.08,8.57.08,1.14,0,2.17-.12,3.28-.2a12.27,12.27,0,0,0,2-.4,7.86,7.86,0,0,0,1.62-.67,4.52,4.52,0,0,0,1.91-1.86,3.58,3.58,0,0,0,.4-2.19,4.23,4.23,0,0,0-1.16-2.29,8.11,8.11,0,0,0-1.5-1.22c1-2.11-1.34-4.6-7.15-5.46-5.37-.56-53.43-6.21-55.43-1.48a14.7,14.7,0,0,0-2.78.62,6.45,6.45,0,0,0-3.17,2.12,3.45,3.45,0,0,0-.69,1.95,3.57,3.57,0,0,0,.45,1.78,5.53,5.53,0,0,0,.72,1,7.72,7.72,0,0,0-2.27,1,4.23,4.23,0,0,0-1.24,1.3,2.74,2.74,0,0,0-.37,1.86,3.49,3.49,0,0,0,.75,1.58,5.45,5.45,0,0,0,1.05,1,9.72,9.72,0,0,0,1.89,1,20.41,20.41,0,0,0,6.42,1.11l.51,0c2.33.11,4.64.12,7,.14,5.89,0,11.75-.24,17.61-.36l3.35-.06a5.07,5.07,0,0,0,2.24.38c2.25,0,4.9-.05,7.09-.29a7.8,7.8,0,0,0,1.22-.33A3.73,3.73,0,0,0,389.33,298.15Z"/><path class="cls-8" d="M391.85,220.94l.06.75c.47,1.1-.13,2.31.35,3.4a1.74,1.74,0,0,0,.05,1.17c.53,2.22-.16,4.52.36,6.74a19.18,19.18,0,0,0,.07,4.48,28.48,28.48,0,0,1,.16,5.54c0,5.92,0,11.84,0,17.75a4.55,4.55,0,0,1-.16,2,9.79,9.79,0,0,0-.06,3.24c-.52,2.08.16,4.24-.37,6.32a2.86,2.86,0,0,0-.05,1.56c-.53,2.51.19,5.08-.38,7.58a1.7,1.7,0,0,0-.05,1.09c-.37.7.07,1.54-.36,2.23a.25.25,0,0,0,0,.32,5.24,5.24,0,0,0,0,3.41h0c.19.54-.21.86-.46,1.24l0,0a1,1,0,0,1-.48.4l0,0c-.18.35-.59.27-.85.46h0a6.24,6.24,0,0,1-3.73,0l-.11-.08-.13.07c-1-.46-2.1.17-3.06-.42l0,0c-1.06-.54-2.29.2-3.34-.44l0,0c-4.4-.42-8.8-.06-13.2-.19-.74,0-1.52.22-2.22-.23l-.11-.08-.13.07c-.7-.38-1.54.08-2.23-.37h0c-.32-.38-.91,0-1.23-.43h0a1.76,1.76,0,0,1-.43-.43v0c-.37-.4-.14-1-.38-1.42.06-.1.05-.17-.06-.23a1.05,1.05,0,0,1,0-1.25,6.83,6.83,0,0,0,.15-1c0-4.48,0-9,0-13.44,0-.27-.05-.55-.07-.82a101.06,101.06,0,0,0,0-13.48,3.53,3.53,0,0,0-.09-2c-.17-.25-.12-.6-.33-.85h0a.39.39,0,0,0-.48,0h0a1.92,1.92,0,0,1-2.05,0l0,0c-1.36-.52-2.83.18-4.18-.41h0c-1.06-.55-2.28.19-3.33-.43h0c-.77-.5-1.74.15-2.51-.43h0c-.47-.44-1.23.12-1.66-.47l0,0c-.28-.15-.63-.12-.89-.35h0c-.3-.41-.94,0-1.21-.5l0,0c-.27-.16-.65-.1-.87-.4h0c-.25-.2-.66-.12-.84-.45l0,0a1.37,1.37,0,0,1-.48-.38h0c-.13-.14-.27-.27-.41-.4h0a3,3,0,0,0-.4-.4v0a5,5,0,0,0-.4-.4h0a3,3,0,0,0-.4-.4v0c-.13-.14-.26-.27-.4-.4h0a5.23,5.23,0,0,0-.39-.42h0a1.47,1.47,0,0,1-.38-.48l0,0c-.48-.34-.14-.94-.45-1.34l-.06-.72c-.49-1.09.13-2.31-.37-3.4a1.77,1.77,0,0,0,0-1.16c-.55-2.11.12-4.28-.37-6.39a6.82,6.82,0,0,0-.05-2.34c-.57-2.5.15-5.07-.38-7.57a6.46,6.46,0,0,0,0-2.4,118.37,118.37,0,0,1,0-15,2.64,2.64,0,0,0,.06-1.5c.43-1-.12-2.09.36-3.07a.25.25,0,0,0,0-.33c.45-.66-.11-1.52.42-2.16v0c.36-.34,0-.95.45-1.26l0,0c.19-.26.11-.68.48-.84l-.05.05a.75.75,0,0,1,.42-.48l0,0a1,1,0,0,1,.44-.45l0,0a.94.94,0,0,1,.44-.44l0,0a1,1,0,0,1,.45-.45l0,0a1.06,1.06,0,0,1,.44-.45l0,0a1,1,0,0,1,.45-.44l0,0a.69.69,0,0,1,.49-.42l-.05,0c.13-.38.57-.27.79-.52h0a2.7,2.7,0,0,1,1-.37l.67-.1a7.35,7.35,0,0,1,3.3,0l.75.08c.4.29.94,0,1.33.36a.22.22,0,0,0,.29.07c.31.15.69.12,1,.38h0c.22.23.61.16.82.42h0c.23.23.65.14.81.47l0,0a.94.94,0,0,1,.46.44l0,0a1,1,0,0,1,.44.45l0,0a1,1,0,0,1,.45.44l0,0a1,1,0,0,1,.44.45l0,0a1,1,0,0,1,.45.44l0,0a1,1,0,0,1,.44.45l0,0a1,1,0,0,1,.45.44l0,0a.88.88,0,0,1,.43.46l0,0c.34.18.26.59.46.85v0c.51.51.05,1.24.42,1.78q-.18,4.45,0,8.89a17.89,17.89,0,0,0,0,5.61,1.77,1.77,0,0,0,0,1.16c.5.95-.11,2,.38,3a.27.27,0,0,0,.06.34c.31.37,0,.91.36,1.28l0,0c.44.3.05.91.47,1.22v0c.13.16.31.29.34.51l0,0a.57.57,0,0,1,.46.47l0,0c.23,0,.36.2.51.35h0c.21.25.58.17.82.37a.21.21,0,0,0,.29.09c.3.14.66.14,1,.31l.84.09c.6-1.92-.16-3.93.42-5.85a3,3,0,0,0,0-1.57c.51-1.24-.15-2.59.38-3.83,0-.22,0-.44.05-.66.24-.44,0-1,.35-1.41a.2.2,0,0,0,.07-.29,5.44,5.44,0,0,1,.33-1,.23.23,0,0,0,.08-.3c.15-.3.13-.67.35-.95a.15.15,0,0,0,.07-.23,1.14,1.14,0,0,1,.32-.59.17.17,0,0,0,.1-.24,1.05,1.05,0,0,1,.35-.61h0a1.53,1.53,0,0,0,.35-.41l.05-.06a.81.81,0,0,0,.37-.36l.05-.05a.83.83,0,0,0,.36-.36l0-.06a.81.81,0,0,0,.37-.36l.05,0a.81.81,0,0,0,.36-.37l.06-.05a.78.78,0,0,0,.36-.36l0-.05a.81.81,0,0,0,.36-.37l.06,0a.78.78,0,0,0,.36-.36l.05-.05a2.46,2.46,0,0,0,.44-.34h0c.22-.24.6-.17.84-.4h0a2.49,2.49,0,0,1,1-.38l.66-.12c.41-.24.93,0,1.34-.31l1.15-.1c1.07-.07,2.3-.73,2.9.84a28.55,28.55,0,0,0,6.13.09c.28.17.64.14.91.32a.27.27,0,0,0,.31.1,2.13,2.13,0,0,1,.53.3.24.24,0,0,0,.29.12,1.4,1.4,0,0,1,.55.35l0,0a1.39,1.39,0,0,0,.41.35l.05.05a.76.76,0,0,0,.37.36l.05.05a.81.81,0,0,0,.36.37l0,0a.81.81,0,0,0,.37.36l.05.06a.78.78,0,0,0,.36.36l.05.05a.81.81,0,0,0,.37.36l0,.06a.78.78,0,0,0,.36.36l.06,0a.78.78,0,0,0,.36.36l.05.06a1,1,0,0,0,.36.38l0,0c.11.15.24.3.36.44h0a1,1,0,0,1,.39.49l0-.05c.35.18.27.59.47.85l0,0c.32.23.26.63.43.94a.23.23,0,0,0,.09.3c.19.25.13.6.35.84v0c.38.38.1,1,.39,1.35a.23.23,0,0,0,.06.31c.32.41.09,1,.35,1.38a.19.19,0,0,0,0,.28c.48.66,0,1.51.39,2.18a.23.23,0,0,0,0,.31C392,218.9,391.37,220,391.85,220.94Z"/><path class="cls-5" d="M343.41,251.38a.56.56,0,0,1-.53-.28l0,0c-.27-.17-.65-.11-.87-.41h0c-.25-.2-.66-.12-.84-.45l0,0a1.37,1.37,0,0,1-.48-.38h0c-.13-.14-.27-.27-.41-.4h0a3,3,0,0,0-.4-.4v0a5,5,0,0,0-.4-.4h0a3,3,0,0,0-.4-.4v0c-.13-.14-.26-.27-.4-.4h0a5.23,5.23,0,0,0-.39-.42h0a1.47,1.47,0,0,1-.38-.48l0,0c-.48-.34-.14-.94-.45-1.34l-.06-.72c-.49-1.09.13-2.31-.37-3.4a1.77,1.77,0,0,0,0-1.16c-.55-2.11.12-4.28-.37-6.39a6.82,6.82,0,0,0-.05-2.34c-.57-2.5.15-5.07-.38-7.57a6.46,6.46,0,0,0,0-2.4,118.37,118.37,0,0,1,0-15,2.64,2.64,0,0,0,.06-1.5c.43-1-.12-2.09.36-3.07a.25.25,0,0,0,0-.33c.45-.66-.11-1.52.42-2.16v0c.36-.34,0-.95.45-1.26l0,0c.19-.26.11-.68.48-.84l-.05.05a.75.75,0,0,1,.42-.48l0,0a1,1,0,0,1,.44-.45l0,0a.94.94,0,0,1,.44-.44l0,0a1,1,0,0,1,.45-.45l0,0a1.06,1.06,0,0,1,.44-.45l0,0a1,1,0,0,1,.45-.44l0,0a.67.67,0,0,1,.49-.42l-.05,0c.13-.38.57-.27.79-.52h0a2.7,2.7,0,0,1,1-.37l.67-.1a7.15,7.15,0,0,1,1.29-.18l-.09,2a48,48,0,0,0-3.14,17.29c0,9,0,28.95,2.07,38.44Zm16.25-26.64a2.91,2.91,0,0,1,.63.21l.84.09c.6-1.92-.16-3.93.42-5.85a3,3,0,0,0,0-1.58c.51-1.23-.15-2.58.38-3.82,0-.22,0-.44.05-.66.24-.44,0-1,.35-1.41a.2.2,0,0,0,.07-.29,5.44,5.44,0,0,1,.33-1,.23.23,0,0,0,.08-.3c.15-.3.13-.67.35-.95a.15.15,0,0,0,.07-.23,1.14,1.14,0,0,1,.32-.59.17.17,0,0,0,.1-.24,1.11,1.11,0,0,1,.35-.61h0a1.53,1.53,0,0,0,.35-.41l.05-.06a.74.74,0,0,0,.36-.36l.06-.05a.78.78,0,0,0,.36-.36l0-.06a.81.81,0,0,0,.37-.36l.05,0a.81.81,0,0,0,.36-.37l.06-.05a.78.78,0,0,0,.36-.36l0-.05a.86.86,0,0,0,.36-.37l.06,0a.78.78,0,0,0,.36-.36l.05-.05a2.46,2.46,0,0,0,.44-.34h0c.22-.24.6-.17.84-.4h0a2.49,2.49,0,0,1,1-.38l.66-.12c.41-.24.93,0,1.34-.31l1.15-.1c.3,0,.61-.08.91-.13l.95,1.31a14.38,14.38,0,0,0-5.74,9.81c-1,6.84-1.41,18.25-6.87,15.74C360.69,228.62,360,226.94,359.66,224.74Z"/><path class="cls-9" d="M391.85,220.94l.06.75c.47,1.1-.13,2.31.35,3.4a1.74,1.74,0,0,0,.05,1.17c.53,2.22-.16,4.52.36,6.74a19.18,19.18,0,0,0,.07,4.48,28.48,28.48,0,0,1,.16,5.54c0,5.92,0,11.84,0,17.75a4.55,4.55,0,0,1-.16,2,9.79,9.79,0,0,0-.06,3.24c-.52,2.08.16,4.24-.37,6.32a2.86,2.86,0,0,0-.05,1.56c-.53,2.51.19,5.08-.38,7.58a1.7,1.7,0,0,0-.05,1.09c-.37.7.07,1.54-.36,2.23a.25.25,0,0,0,0,.32,5.24,5.24,0,0,0,0,3.41h0c.19.54-.21.86-.46,1.24l0,0a1,1,0,0,1-.48.4l0,0c-.18.35-.59.27-.84.46h0a6.24,6.24,0,0,1-3.73,0l-.11-.08-.13.07c-1-.46-2.1.17-3.06-.42l0,0c-1.06-.54-2.29.2-3.34-.44l0,0c-4.4-.42-8.8-.06-13.2-.19-.74,0-1.52.22-2.22-.23l-.11-.08-.13.07c-.7-.38-1.54.08-2.23-.37h0c-.32-.38-.91,0-1.23-.43h0a1.76,1.76,0,0,1-.43-.43v0a.93.93,0,0,1-.18-.32c8.34-.24,26.93-1.76,26.93-10.51,0-11.29.92-28.12-.56-48.1s-6.29-23.77-6.29-23.77l-6.33-3c.86-.15,1.73-.29,2.2.94a28.55,28.55,0,0,0,6.13.09c.28.17.64.14.91.32a.27.27,0,0,0,.31.1,1.91,1.91,0,0,1,.52.3.26.26,0,0,0,.3.12,1.29,1.29,0,0,1,.55.35l0,0a1.39,1.39,0,0,0,.41.35l.05.05a.76.76,0,0,0,.37.36l.05.05a.81.81,0,0,0,.36.37l0,0a.81.81,0,0,0,.37.36l.05.06a.78.78,0,0,0,.36.36l.05.05a.81.81,0,0,0,.37.36l0,.06a.78.78,0,0,0,.36.36l.06,0a.78.78,0,0,0,.36.36l.05.06a1,1,0,0,0,.36.38l0,0c.11.15.24.3.36.44h0a1,1,0,0,1,.39.49l0-.05c.35.18.27.59.47.85l0,0c.32.23.26.63.43.94a.23.23,0,0,0,.09.3c.19.25.13.6.35.84v0c.38.38.1,1,.39,1.35a.23.23,0,0,0,.06.31c.32.41.09,1,.35,1.38a.19.19,0,0,0,0,.28c.48.66,0,1.51.39,2.18a.23.23,0,0,0,0,.31c.5,1-.1,2.05.38,3ZM346.8,193.83l.53,0c.39.29.94,0,1.33.36a.22.22,0,0,0,.29.07c.31.15.69.12,1,.38h0c.22.23.61.16.82.42h0c.23.23.65.14.81.47l0,0a.94.94,0,0,1,.46.44l0,0a1,1,0,0,1,.44.45l0,0a1,1,0,0,1,.45.44l0,0a1,1,0,0,1,.44.45l0,0a1,1,0,0,1,.45.44l0,0a1,1,0,0,1,.44.45l0,0a1,1,0,0,1,.45.44l0,0a.88.88,0,0,1,.43.46l0,0c.34.18.26.59.46.85v0c.51.51.05,1.24.42,1.78q-.18,4.45,0,8.89a17.89,17.89,0,0,0,0,5.61,1.77,1.77,0,0,0,0,1.16c.5.95-.11,2,.38,3a.27.27,0,0,0,.06.34c.31.37,0,.91.36,1.28l0,0c.44.3.05.91.47,1.22h0c.13.17.31.3.34.52l0,0a.57.57,0,0,1,.46.47l0,0c.23,0,.36.2.51.35h0c.21.25.58.17.82.37a.21.21,0,0,0,.29.09l.18.07-.06,2.29c-11.93-1.11-10.45-14.15-9.8-21.36s-3.05-10.55-3.05-10.55Z"/><path class="cls-10" d="M393.65,236.28a127.5,127.5,0,0,0-1.34-17.78,34.51,34.51,0,0,0-1.9-7.63,11.58,11.58,0,0,0-7.22-7,21.75,21.75,0,0,0-12.47-.64,9.42,9.42,0,0,0-7,5.67,25.51,25.51,0,0,0-1.37,4.56c-.43,2.12-.39,4.27-.62,6.4a17.63,17.63,0,0,0,.11,5,2.16,2.16,0,0,1,0,1.48,5,5,0,0,1-2.75-1.68,7,7,0,0,1-2-3.56,24.62,24.62,0,0,1-.43-3.92c-.05-2.76,0-5.53,0-8.3,0-2.07,0-4.15-.08-6.22a8,8,0,0,0-5.16-7.39A14.72,14.72,0,0,0,345,194a8.12,8.12,0,0,0-7.52,6,42.91,42.91,0,0,0-1.11,8.43c-.32,5.39-.17,10.79,0,16.18.16,4.84.46,9.68.67,14.51a75.83,75.83,0,0,0,.86,9.29,5.37,5.37,0,0,0,2.51,3.87c.3.18.57.41.87.57a22.8,22.8,0,0,0,6,2.18,64.52,64.52,0,0,0,6.78.9,34.35,34.35,0,0,0,5.17.32c.52,0,.73.22.74.76s0,1,0,1.45c-.08,4.43-.17,8.86-.22,13.28,0,3.74.08,7.47,0,11.2a25.73,25.73,0,0,0,.86,7.16.43.43,0,0,0,.28.26.4.4,0,0,0,.34-.12c.67-1.57,1.62-3,1.62-4.85,0-8,.1-15.92.1-23.88a33.48,33.48,0,0,0-.3-5.38c-.29-1.76-.25-1.76.51-3.36a4.64,4.64,0,0,0-3.75-.42,4.13,4.13,0,0,1-1.85.09c-2.34-.24-4.68-.48-7-.74a23.53,23.53,0,0,1-7.57-2.06,3.19,3.19,0,0,1-2.19-2.95c-.05-1.31-.29-2.61-.37-3.92-.2-3.38-.36-6.77-.51-10.15-.22-4.77-.45-9.54-.6-14.31a109.91,109.91,0,0,1,.35-12.44,34.39,34.39,0,0,1,.73-4.71,3.89,3.89,0,0,1,3.55-3.25,11.53,11.53,0,0,1,7.94,1.68,3.18,3.18,0,0,1,1.5,2.16,10.69,10.69,0,0,1,.3,1.84c0,2.83,0,5.67-.08,8.51a41.34,41.34,0,0,0,.63,10.12,8.68,8.68,0,0,0,6.95,6.89,6,6,0,0,0,1.85.12,1.12,1.12,0,0,0,1.11-1.24,8.26,8.26,0,0,1,0-1.65,78.73,78.73,0,0,0,.83-8.67,23.72,23.72,0,0,1,1.28-6.49,5.74,5.74,0,0,1,4.48-4.13,22.13,22.13,0,0,1,11.67.47,8.13,8.13,0,0,1,5.18,4.75,23.29,23.29,0,0,1,1.47,5.17A122,122,0,0,1,390.58,236c.15,7,0,14,.12,21,.07,6.65-.27,13.28-.67,19.91-.2,3.38-.06,6.78-.76,10.13a3.55,3.55,0,0,0,0,1,1.44,1.44,0,0,0,.47.9.85.85,0,0,0,1.11.2,2.73,2.73,0,0,0,1.5-2.1,35.43,35.43,0,0,0,.48-4.11c.13-3.25.2-6.5.45-9.74.42-5.46.49-10.92.51-16.39C393.82,250,393.73,243.13,393.65,236.28Z"/><path class="cls-10" d="M384.6,270.58c-.12-.16-.26-.37-.42-.41a.67.67,0,0,0-.68.37,2.1,2.1,0,0,0-.27.76,11.19,11.19,0,0,0-.08,1.17c0,.89,0,1.31,0,1.72a2.22,2.22,0,0,0,.24.77.66.66,0,0,0,1.16,0,2.13,2.13,0,0,0,.31-.75,12.87,12.87,0,0,0-.12-3.28A.71.71,0,0,0,384.6,270.58Z"/><path class="cls-10" d="M384.44,283.35c-.38-.06-.61.24-.81.51a2.52,2.52,0,0,0-.25,2.36.63.63,0,0,0,.64.41.65.65,0,0,0,.62-.45,10.5,10.5,0,0,0,.2-1.31c0-.31,0-.51,0-.72S384.91,283.42,384.44,283.35Z"/><path class="cls-10" d="M383.6,245.23a4.84,4.84,0,0,0-1.38-3.13.7.7,0,0,0-.55-.18.66.66,0,0,0-.48.62,3.78,3.78,0,0,0,.06.82,10.47,10.47,0,0,0,1.11,3.94c.19.3,0,1,.58.86.33,0,.25-.57.29-.9A8.65,8.65,0,0,0,383.6,245.23Z"/><path class="cls-10" d="M383,221.05c-1.33,2.1-.93,4.1-.53,6.36A6.39,6.39,0,0,0,383,221.05Z"/><path class="cls-10" d="M375,219.43a.66.66,0,0,0-.47.61,7.24,7.24,0,0,0,.53,4.18c.05.1.21.13.39.24a5,5,0,0,0,.25-4.46C375.6,219.66,375.42,219.35,375,219.43Z"/><path class="cls-10" d="M372.71,252.18a.52.52,0,0,0-.64.36,5.85,5.85,0,0,0-.31,1.18c-.33,1.75-.17,3.56-.65,5.29,0,.07.14.25.21.26a.41.41,0,0,0,.32-.18c.49-.9,1-1.81,1.43-2.72a4.32,4.32,0,0,0,.39-2c-.08-.43-.18-1.11-.33-1.77A.66.66,0,0,0,372.71,252.18Z"/><path class="cls-10" d="M371.81,270.2a.49.49,0,0,0-.35.11.77.77,0,0,0-.26.31,10.37,10.37,0,0,0-.83,5.07,1.91,1.91,0,0,0,1,1.42c1.2-2.22.79-4.44.68-6.62A.42.42,0,0,0,371.81,270.2Z"/><path class="cls-10" d="M368.29,238.48c-.11-.16-.22-.39-.47-.3a1,1,0,0,0-.48.32,2.68,2.68,0,0,0-.34,1.7c0,.3.05.71.12,1.12.11.68.24,1.35.37,2,0,.18.13.26.27.19s.29-.14.3-.23c.18-1.22.73-2.38.57-3.65A2.45,2.45,0,0,0,368.29,238.48Z"/><path class="cls-10" d="M356.28,244.78c.16,0,.39-.34.51-.57a4.73,4.73,0,0,0,.08-3.78.59.59,0,0,0-.49-.26.6.6,0,0,0-.41.38c-.14.73-.21,1.48-.29,2.06s.09,1,.14,1.39S355.87,244.75,356.28,244.78Z"/><path class="cls-10" d="M355.31,228.05a.42.42,0,0,0-.32-.18.52.52,0,0,0-.35.16,2.84,2.84,0,0,0-.45,1.56,13.38,13.38,0,0,0,.57,3.87c0,.1.18.18.29.23s.25,0,.28-.18a14.32,14.32,0,0,0,.46-3.06A4.53,4.53,0,0,0,355.31,228.05Z"/><path class="cls-10" d="M347.65,239.62a1.66,1.66,0,0,0-.44.67,6.94,6.94,0,0,0,.29,4.42c1.22-1.59,1-3.21,1.2-4.75,0-.24-.14-.37-.32-.47A.54.54,0,0,0,347.65,239.62Z"/><path class="cls-10" d="M346.52,221.58a.4.4,0,0,0-.24-.27.45.45,0,0,0-.36.08,2.17,2.17,0,0,0-.46.67,10.34,10.34,0,0,0,.11,7.58c.15-.14.32-.22.33-.32a16,16,0,0,0,.48-4.68,11.64,11.64,0,0,1,.07-2C346.47,222.26,346.52,221.92,346.52,221.58Z"/><path class="cls-10" d="M345,205.48a.44.44,0,0,0-.34-.14.43.43,0,0,0-.33.19,5.48,5.48,0,0,0-.34,1,6.19,6.19,0,0,0,.51,3.48,5.92,5.92,0,0,0,.82-3.74A2.46,2.46,0,0,0,345,205.48Z"/><path class="cls-10" d="M391.23,288.6c-4.67-.32-9.66-.32-14.36-.37h-.32c-5.1,0-10.36-.06-15.45.15-.65,0-3.88-.11-3.92,1s3.27.95,3.92,1c5.1.21,10.33.2,15.44.23h.32c4.75,0,9.58.09,14.32,0,.43,0,2.36.11,2.58-.48h.07c.13-.09.24-.11.25-.32a.36.36,0,0,0-.19-.36s0,0,0,0C393.72,288.69,391.72,288.65,391.23,288.6Z"/><path class="cls-10" d="M356.14,288.86a2,2,0,0,0-1-.25h0a2.43,2.43,0,0,0-1.1.1s-.27-.08-.27.67.23.66.27.68a3.18,3.18,0,0,0,1.1.15h0a3.79,3.79,0,0,0,1,0s.17.08.18-.33h0a.88.88,0,0,0,0-.22,1.47,1.47,0,0,0,0-.25h0C356.31,288.92,356.17,288.89,356.14,288.86Z"/><path class="cls-10" d="M397.64,288.86a1.91,1.91,0,0,0-1-.25h0a2.39,2.39,0,0,0-1.09.1c-.05,0-.28-.08-.28.67s.23.66.28.68a3.16,3.16,0,0,0,1.09.15h0a3.87,3.87,0,0,0,1,0s.16.08.18-.33h0a.88.88,0,0,0,0-.22,1.7,1.7,0,0,0,0-.25h0C397.82,288.92,397.68,288.89,397.64,288.86Z"/><path class="cls-2" d="M130.51,305.16l6.9-.13c2.9-.07,5.69-.22,8.57-.37,1.14-.06,2.16-.23,3.26-.37a11.72,11.72,0,0,0,2-.51,7.75,7.75,0,0,0,1.56-.74,4.37,4.37,0,0,0,1.78-1.94,3.56,3.56,0,0,0,.23-2.18,4.33,4.33,0,0,0-1.34-2.21,8.29,8.29,0,0,0-1.58-1.12c.87-2.14-1.69-4.48-7.55-5-5.4-.27-53.79-3.32-55.43,1.45a15.56,15.56,0,0,0-2.73.76,6.3,6.3,0,0,0-3,2.26,3.34,3.34,0,0,0-.55,2,3.62,3.62,0,0,0,.59,1.74,6.27,6.27,0,0,0,.8.95,7.57,7.57,0,0,0-2.19,1.14,4,4,0,0,0-1.14,1.35,2.68,2.68,0,0,0-.23,1.86,3.42,3.42,0,0,0,.87,1.52,5.26,5.26,0,0,0,1.11.9,10.34,10.34,0,0,0,2,.91,20.7,20.7,0,0,0,6.5.76h.51c2.33,0,4.64-.13,7-.24,5.87-.26,11.7-.85,17.55-1.27.27,0,1.65-.12,3.33-.24a5.38,5.38,0,0,0,2.27.26c2.24-.13,4.88-.31,7.06-.66a7.54,7.54,0,0,0,1.19-.39A3.7,3.7,0,0,0,130.51,305.16Z"/><path class="cls-8" d="M116.79,198.87l-.48.08c-.4.44-1.09,0-1.48.51h0c-.29.25-.73.18-1,.46h0c-.24.31-.72.2-.95.53l0,0c-.17.15-.35.29-.53.42l0,0c-.18.36-.74.21-.86.65l.06-.06a.74.74,0,0,0-.57.5l0,0a1,1,0,0,0-.54.51l0,0a1.14,1.14,0,0,0-.52.52l0,0a1.14,1.14,0,0,0-.52.52l0,0a1.19,1.19,0,0,0-.52.52l0,0a1.19,1.19,0,0,0-.52.52l0,0a1,1,0,0,0-.51.55l0,0a.74.74,0,0,0-.51.57l.06-.05c-.45.13-.32.67-.62.92h0a1.07,1.07,0,0,0-.43.73.16.16,0,0,1-.09.25c-.27.28-.18.72-.45,1v0c-.45.45-.14,1.12-.47,1.61a.23.23,0,0,1,0,.34c-.58,1,.09,2.1-.45,3.06.17,4.8.14,9.6,0,14.4.11.4.35.8-.06,1.16h0a2,2,0,0,1-2.45.44c-.32-.22-.19-.69-.48-.93a.28.28,0,0,1,0-.37c-.6-1.64.2-3.4-.45-5a3.48,3.48,0,0,1,0-1.84c-.59-1.63.17-3.38-.43-5,0-.28,0-.56-.07-.84-.42-.64.07-1.48-.46-2.1h0c-.43-.4,0-1.09-.49-1.48h0c-.27-.27-.18-.75-.53-1l0,0a2,2,0,0,0-.47-.54h0l-.48-.48h0l-.48-.49h0l-.48-.49h0c-.16-.16-.32-.33-.49-.49h0c-.16-.16-.32-.33-.49-.49h0l-.49-.49h0a5.67,5.67,0,0,0-.5-.48h0c-.27-.32-.73-.23-1-.49l-1.8,0c-.34.21-.76.17-1.08.42h0c-.2.34-.72.21-.9.59l0,0a1,1,0,0,0-.54.51l0,0a1.19,1.19,0,0,0-.52.52l0,0a1.19,1.19,0,0,0-.52.52l0,0a1.19,1.19,0,0,0-.52.52l0,0a1.16,1.16,0,0,0-.52.53l0,0a.94.94,0,0,0-.5.55l0-.05a.8.8,0,0,0-.52.69.18.18,0,0,1-.14.26c-.13.18-.26.35-.4.51l0,0c-.32.24-.22.71-.52,1h0c-.27.29-.22.72-.45,1l0,0c-.49.47-.19,1.15-.48,1.67l.06.15-.1.12c-.63.95.07,2.11-.47,3.07a3.24,3.24,0,0,1-.07,1.85,9.62,9.62,0,0,0,0,4.4,7.1,7.1,0,0,1,.06,2.83c.58,1.8-.14,3.7.42,5.5a2,2,0,0,1,.07,1.38c.58,1.29-.14,2.72.43,4a.85.85,0,0,1,.08.8c.46.83-.11,1.83.45,2.65a.17.17,0,0,1,0,.29c.29.51,0,1.18.45,1.65v0c.43.41,0,1.1.52,1.49l0,0c.25.3.19.73.45,1h0c.31.24.22.7.48,1h0c.32.24.2.72.55.94l0,0,.39.53a.22.22,0,0,1,.14.29.89.89,0,0,0,.49.68l0,0a1.58,1.58,0,0,0,.49.54v0a4.5,4.5,0,0,0,.46.52h0a5.5,5.5,0,0,1,.47.49h0c.16.15.32.31.47.48h0c.16.15.32.31.47.48h0a5.32,5.32,0,0,1,.47.48h0a5.32,5.32,0,0,1,.47.48h0a5.32,5.32,0,0,1,.47.48h0c.18.15.33.33.52.46l0,0c.53.58,1.32.64,2,1h0c.29.29.71.25,1,.42l0,0c.51.71,1.41,0,2,.56h0c.73.64,1.72,0,2.47.5l0,0c2.52.12,1.31,2.3,1.92,3.48a19.53,19.53,0,0,1,.07,4.77c.59,2.47-.2,5,.43,7.49a3.26,3.26,0,0,1,.07,1.78c.58,2.15-.21,4.4.43,6.56a29.18,29.18,0,0,1,0,5.76c.6,1.8-.19,3.71.45,5.51.12.07.14.15.06.26,1.84.32,1,2.26,1.93,3.16h0a1.26,1.26,0,0,0,.58.46l-.06-.05c.27.43.76.37,1.15.53h.11a27.81,27.81,0,0,1,7.57,0l0,0c1.08.71,2.37-.08,3.47.5l0,0c1.06.75,2.36-.08,3.45.53h0c1.08.71,2.37-.11,3.46.5l0,0a43.32,43.32,0,0,0,11.71-.06l-.06,0c.53-.09.8-.51,1.07-.91h0c.61-.77-.19-1.79.47-2.55,0-.25,0-.5,0-.76a10.88,10.88,0,0,1,0-4.65,15.49,15.49,0,0,1,.05-4.3c.62-2.3-.16-4.69.43-7a4.88,4.88,0,0,1,.07-2.31c.13-1.4.86-1.8,2.26-1.76,3.51.12,7,.06,10.54,0,.78,0,1.64.3,2.35-.32l0,0c.45-.34,1.09,0,1.52-.43h0c.38-.47,1.11,0,1.45-.56l0,0c.32-.21.77-.14,1-.49h0c.3-.23.76-.15,1-.51l0,0a2.36,2.36,0,0,0,.55-.45h0a5.44,5.44,0,0,1,.49-.47v0a5.32,5.32,0,0,1,.48-.47v0a5.32,5.32,0,0,1,.48-.47v0a5.32,5.32,0,0,1,.48-.47v0a4.25,4.25,0,0,1,.48-.47v0a5.82,5.82,0,0,0,.46-.53l0,0c.32-.25.24-.72.51-1v0c.43-.46.12-1.13.46-1.61a.25.25,0,0,1,0-.35c.57-1-.09-2.09.45-3.06,0-.29,0-.58,0-.87a21.28,21.28,0,0,0,0-6.85,1.93,1.93,0,0,1-.06-1.32c-.54-1.15.16-2.45-.45-3.59a.26.26,0,0,1,0-.36c-.52-1,.11-2.1-.42-3.06a1,1,0,0,1-.07-.84c-.51-1,.11-2.11-.43-3.08a.25.25,0,0,1-.07-.34c-.18-.36-.13-.84-.5-1.12l0,0a2.2,2.2,0,0,0-.47-.54h0l-.49-.48h0l-.49-.48h0l-.49-.48h0l-.49-.48h0l-.49-.48h0a3.42,3.42,0,0,0-.53-.47l0,0c-.24-.33-.71-.24-1-.52h0c-.33-.3-.77-.29-1.16-.43l-.8-.14c-.82-.4-1.76.07-2.58-.37h-.71c-.64.41-1.44,0-2.08.4a.24.24,0,0,1-.32.1,1.44,1.44,0,0,0-.67.4l0,0a1.27,1.27,0,0,1-.47.42l-.06.06a.94.94,0,0,1-.43.43l-.06.06a.94.94,0,0,1-.43.43l-.06.06a.94.94,0,0,1-.43.43l-.06.06a.94.94,0,0,1-.43.43l-.06.06a1.27,1.27,0,0,1-.42.47l0,0c-.14.18-.28.35-.44.52h0a1.5,1.5,0,0,0-.47.56l0-.05c-.38.22-.28.7-.55,1v0c-.33.3-.28.76-.47,1.12a.27.27,0,0,1-.09.35c-.41.65,0,1.45-.4,2.1a29.41,29.41,0,0,1,0,5.14,1.65,1.65,0,0,1,.22.92c.13,3.54.06,3.48-3.48,3.42-1.47,0-1.35-1-1.68-1.79a.21.21,0,0,1,0-.33c-.52-1.15.11-2.43-.41-3.58a12.17,12.17,0,0,1-.08-3.81c-.61-2.13.22-4.36-.45-6.49a3.5,3.5,0,0,1,0-1.76c-.45-4.17-.06-8.36-.21-12.54a6.76,6.76,0,0,0-.21-2.86,3.33,3.33,0,0,1,0-1.85c-.59-1.8.15-3.7-.43-5.5,0-.27-.05-.55-.07-.83-.41-.65,0-1.47-.43-2.11a.23.23,0,0,1-.07-.33c-.17-.37-.15-.8-.4-1.13a.2.2,0,0,1-.1-.3c-.15-.39-.11-.87-.5-1.16l0,0c-.22-.31-.13-.78-.52-1l0,0a5.42,5.42,0,0,0-.37-.56.21.21,0,0,1-.14-.28,1.13,1.13,0,0,0-.43-.71h0c-.3-.24-.17-.78-.63-.91l.06.06a.62.62,0,0,0-.53-.55l0,0a.78.78,0,0,0-.5-.57l0,0a1,1,0,0,0-.51-.54l0,0a1.19,1.19,0,0,0-.52-.52l0,0a1.19,1.19,0,0,0-.52-.52l0,0a1.19,1.19,0,0,0-.52-.52l0,0a1.19,1.19,0,0,0-.52-.52l0,0a1.11,1.11,0,0,0-.53-.52l0,0a.82.82,0,0,0-.58-.49l.06.05c-.12-.43-.68-.28-.84-.64l-.07,0c-.21-.1-.34-.3-.55-.39l0,0c-.3-.36-.77-.32-1.15-.48a.2.2,0,0,1-.3-.08c-.47-.39-1.12-.09-1.59-.43a53.55,53.55,0,0,1-7.6,0C117.89,198.81,117.27,198.56,116.79,198.87Z"/><path class="cls-5" d="M116.79,198.87l-.48.08a.53.53,0,0,1-.14.12,44.16,44.16,0,0,1,6.71,1.81s9.27,5.13,9.38,15.5,1.42,35.13,2.19,37.75,5.78,3.17,5.78,3.17l.91-2.84c-.6-.32-.59-1-.84-1.61a.21.21,0,0,1,0-.33c-.52-1.15.11-2.43-.41-3.58a11.87,11.87,0,0,1-.07-3.81c-.62-2.13.21-4.36-.46-6.49a3.5,3.5,0,0,1,0-1.76c-.45-4.17-.06-8.36-.21-12.54a6.76,6.76,0,0,0-.21-2.86,3.33,3.33,0,0,1,0-1.85c-.59-1.8.15-3.7-.43-5.5,0-.27-.05-.55-.07-.83-.41-.65,0-1.47-.43-2.11a.23.23,0,0,1-.07-.33c-.17-.37-.15-.8-.4-1.13a.2.2,0,0,1-.1-.3c-.15-.39-.11-.87-.5-1.16l0,0c-.22-.31-.13-.78-.52-1l0,0a5.42,5.42,0,0,0-.37-.56.21.21,0,0,1-.14-.28,1.13,1.13,0,0,0-.43-.71h0c-.3-.24-.17-.78-.63-.91l.06.06a.62.62,0,0,0-.53-.55l0,0a.78.78,0,0,0-.5-.57l0,0a1,1,0,0,0-.51-.54l0,0a1.19,1.19,0,0,0-.52-.52l0,0a1.19,1.19,0,0,0-.52-.52l0,0a1.19,1.19,0,0,0-.52-.52l0,0a1.19,1.19,0,0,0-.52-.52l0,0a1.11,1.11,0,0,0-.53-.52l0,0a.82.82,0,0,0-.58-.49l.06.05c-.12-.43-.68-.28-.84-.64l-.07,0c-.21-.1-.34-.3-.55-.39l0,0c-.3-.36-.77-.32-1.15-.48a.2.2,0,0,1-.3-.08c-.47-.39-1.12-.09-1.59-.43a53.55,53.55,0,0,1-7.6,0c-.48.32-1.1.07-1.58.38ZM103,229.44a1.81,1.81,0,0,1-.48-.16c-.32-.22-.19-.69-.48-.93a.27.27,0,0,1,0-.37c-.6-1.64.2-3.4-.45-5a3.48,3.48,0,0,1,0-1.84,11.36,11.36,0,0,1-.19-3.59c-.28-1.44-.55-2.9-.75-4.33l0,0h0c-.43-.4,0-1.09-.49-1.48h0c-.27-.27-.18-.75-.53-1l0,0a2.45,2.45,0,0,0-.46-.55h0l-.48-.49h0l-.48-.49h0l-.48-.49h0c-.16-.16-.32-.33-.49-.49h0c-.16-.16-.32-.33-.49-.49h0l-.49-.49h0a5.67,5.67,0,0,0-.5-.48h0c-.27-.32-.73-.23-1-.49h-1a30.19,30.19,0,0,1,1.84,10.6c0,8.84,1.2,20.3,6.11,15.93a4.92,4.92,0,0,0,1.44-3.41Zm52.85,43.78c.37-.05.77,0,1.07-.27h0c.38-.47,1.11,0,1.45-.56l0,0c.32-.21.77-.14,1-.49h0c.3-.23.76-.15,1-.51l0,0a2.36,2.36,0,0,0,.55-.45h0a5.44,5.44,0,0,1,.49-.47v0a5.32,5.32,0,0,1,.48-.47v0a5.32,5.32,0,0,1,.48-.47v0a5.32,5.32,0,0,1,.48-.47v0a4.25,4.25,0,0,1,.48-.47v0a5.82,5.82,0,0,0,.46-.53l0,0c.32-.25.24-.72.51-1v0c.43-.46.12-1.13.46-1.61a.25.25,0,0,1,0-.35c.57-1-.09-2.1.45-3.06,0-.29,0-.58,0-.87a21.28,21.28,0,0,0,0-6.85,1.93,1.93,0,0,1-.06-1.32c-.54-1.15.16-2.45-.45-3.59a.26.26,0,0,1,0-.36c-.52-1,.11-2.1-.42-3.06a1,1,0,0,1-.07-.84c-.51-1,.11-2.11-.43-3.08a.25.25,0,0,1-.07-.34c-.18-.36-.13-.84-.5-1.12l0,0a2.2,2.2,0,0,0-.47-.54h0l-.49-.48h0l-.49-.48h0l-.49-.48h0l-.49-.48h0l-.49-.48h0a3.87,3.87,0,0,0-.52-.47l0,0c-.24-.33-.71-.24-1-.52h0c-.33-.3-.77-.29-1.16-.43l-.8-.14c-.82-.4-1.76.07-2.58-.37h-.71l-.12.06,3.16,3.48s3.88,18.73,2.07,26.19A27.85,27.85,0,0,1,155.89,273.22Z"/><path class="cls-9" d="M114.85,199.43l0,0h0c-.29.25-.73.18-1,.46h0c-.24.31-.72.2-.95.53l0,0c-.17.15-.35.29-.53.42l0,0c-.18.36-.74.21-.86.65l.06-.06a.74.74,0,0,0-.57.5l0,0a1,1,0,0,0-.54.51l0,0a1.14,1.14,0,0,0-.52.52l0,0a1.14,1.14,0,0,0-.52.52l0,0a1.14,1.14,0,0,0-.52.52l0,0a1.14,1.14,0,0,0-.52.52l0,0a1,1,0,0,0-.51.55l0,0a.74.74,0,0,0-.51.57l.06-.05c-.45.13-.32.67-.62.92h0a1.12,1.12,0,0,0-.44.73.15.15,0,0,1-.08.25c-.27.28-.18.72-.45,1v0c-.45.45-.14,1.12-.47,1.61a.23.23,0,0,1,0,.34c-.58,1,.09,2.1-.45,3.06.17,4.8.14,9.6,0,14.4.11.4.35.8-.06,1.16h0a2.32,2.32,0,0,1-.48.4,2.79,2.79,0,0,1-.92.24l.7,2.12c6.22,2.74,6.92-7.14,6.33-16.48s6.22-12.88,6.22-12.88l-2-2.81Zm-25,8.83,3.22,1.57a28.86,28.86,0,0,0-2.84,17.46c1.53,9.93.76,20.73,6.44,23.35s11.57,3.6,12.11,7.86-1.2,30.22,5.35,33.28,16.31,6.82,25.62,1.88v.76c-.66.76.14,1.78-.47,2.55h0c-.27.4-.54.82-1.07.91l.06,0a42.92,42.92,0,0,1-11.71.07l0,0c-1.09-.61-2.38.21-3.46-.5h0c-1.09-.61-2.39.22-3.45-.53l0,0c-1.1-.58-2.39.21-3.47-.5l0,0a27.81,27.81,0,0,0-7.57,0h-.11c-.39-.16-.88-.1-1.15-.53l.06.05a1.26,1.26,0,0,1-.58-.46h0c-.89-.9-.09-2.84-1.93-3.16.08-.11.06-.19-.06-.26-.64-1.8.15-3.71-.45-5.51a29.18,29.18,0,0,0,0-5.76c-.64-2.16.15-4.41-.43-6.56a3.26,3.26,0,0,0-.07-1.78c-.63-2.47.16-5-.43-7.49a19,19,0,0,0-.07-4.77c-.61-1.18.6-3.36-1.92-3.48l0,0c-.75-.54-1.74.14-2.47-.5h0c-.55-.52-1.45.15-2-.56l0,0c-.34-.17-.76-.13-1-.42h0c-.63-.37-1.42-.43-2-1l0,0c-.19-.14-.34-.31-.52-.46h0a5.32,5.32,0,0,0-.47-.48h0a5.32,5.32,0,0,0-.47-.48h0a5.32,5.32,0,0,0-.47-.48h0c-.15-.17-.31-.33-.47-.48h0c-.15-.17-.31-.33-.47-.48l0,0c-.15-.17-.31-.33-.47-.48h0a4.5,4.5,0,0,1-.46-.52v0a1.58,1.58,0,0,1-.49-.54l0,0a.89.89,0,0,1-.49-.68.22.22,0,0,0-.14-.29l-.39-.53,0,0c-.35-.22-.23-.7-.55-.94h0c-.26-.27-.17-.73-.48-1h0c-.26-.3-.2-.73-.45-1l0,0c-.5-.39-.09-1.08-.52-1.49v0c-.44-.47-.16-1.14-.45-1.65a.18.18,0,0,0,0-.29c-.56-.82,0-1.82-.45-2.65a.85.85,0,0,0-.08-.8c-.57-1.29.15-2.72-.43-4a2,2,0,0,0-.07-1.38c-.56-1.8.16-3.7-.42-5.5a7.1,7.1,0,0,0-.06-2.83,9.62,9.62,0,0,1,0-4.4,3.24,3.24,0,0,0,.07-1.85c.54-1-.16-2.12.47-3.07l.1-.12-.06-.15c.29-.52,0-1.2.48-1.67l0,0c.23-.31.18-.74.45-1h0c.3-.26.2-.73.52-1l0,0c.14-.16.27-.33.4-.51a.18.18,0,0,0,.14-.26.8.8,0,0,1,.52-.69l0,.05a.94.94,0,0,1,.5-.55l0,0a1.19,1.19,0,0,1,.52-.52l0,0a1.19,1.19,0,0,1,.52-.52l0,0a1.19,1.19,0,0,1,.52-.52l0,0,0-.05Zm63.86,27.49h-.07c-.64.41-1.44,0-2.08.4a.24.24,0,0,1-.32.1,1.44,1.44,0,0,0-.67.4l0,0a1.27,1.27,0,0,1-.47.42l-.06.06a.94.94,0,0,1-.43.43l-.06.06a.94.94,0,0,1-.43.43l-.06.06a.94.94,0,0,1-.43.43l-.06.06a.94.94,0,0,1-.43.43l-.06.06a1.27,1.27,0,0,1-.42.47l0,0c-.14.18-.28.35-.44.52h0a1.5,1.5,0,0,0-.47.56l0-.05c-.38.22-.28.7-.55,1v0c-.33.3-.28.76-.47,1.12a.27.27,0,0,1-.09.35c-.41.65,0,1.45-.4,2.1a29.41,29.41,0,0,1,0,5.14,1.65,1.65,0,0,1,.22.92c.1,2.7.08,3.31-1.5,3.41l1.61,4.7c5.74,0,5.91-8.47,5.14-12.84s2.73-8.51,2.73-8.51Z"/><path class="cls-10" d="M83.79,221.54a26.71,26.71,0,0,1,1.63-8.62A10,10,0,0,1,89,208.06c2-1.39,4.09-2.16,6.39-.83A9.1,9.1,0,0,1,100,213c.2.79.39,1.59.54,2.39a94.73,94.73,0,0,1,.9,10.24c.07,1,.12,1.95.2,2.93.06.62.34,1.11,1,1.14.53,0,1.07.4,1.71-.05-.66-4.18-.48-8.42-.5-12.65a30.72,30.72,0,0,1,.89-7.27c1.22-5.08,4.49-8.2,9.24-9.94a22.46,22.46,0,0,1,10.38-1.09,12.2,12.2,0,0,1,5.46,2,18,18,0,0,1,7.9,12.46,78.14,78.14,0,0,1,1,13.66c-.08,8.34.6,16.64,1,24.95.2,3.91.31,3.13,3.6,3.06a1,1,0,0,0,.24,0,.69.69,0,0,0,.57-.69c0-1,0-2,0-2.94,0-1.55,0-3.1,0-4.65a14.07,14.07,0,0,1,1.4-5.41c1.13-2.4,2.85-4.27,5.56-4.73a12,12,0,0,1,10.12,2.5,6.23,6.23,0,0,1,2.08,3.21,32.5,32.5,0,0,1,.68,4.6c.49,3.55,1,7.11,1.19,10.7a41.73,41.73,0,0,1-1.16,12.39,7,7,0,0,1-3.89,4.74,21.77,21.77,0,0,1-9.65,2.41,91.37,91.37,0,0,1-10.19-.58c-.12,1-.24,1.69-.28,2.41-.26,4.89-.54,9.78-.53,14.68,0,1.14-.17,2.28-.26,3.42q0,.36-.12.72a1.74,1.74,0,0,1-1,1.27c-.39.16-1.23-.4-1.55-1a5.86,5.86,0,0,1-.63-2.6c0-1.3-.08-2.61,0-3.92q.24-6.72.56-13.45a23.85,23.85,0,0,1,.43-3.15,2.58,2.58,0,0,1,2-2.16,14,14,0,0,1,4.12-.43c2.53.07,5.06.19,7.59.21a18.66,18.66,0,0,0,7.83-1.71,4,4,0,0,0,2.4-3.13,42.92,42.92,0,0,0,.76-8.76,91.78,91.78,0,0,0-.86-9.51c-.17-1.37-.38-2.75-.47-4.13a4,4,0,0,0-3.52-4,17.88,17.88,0,0,0-4.37-.35A3.87,3.87,0,0,0,149,242.8a10,10,0,0,0-1.31,5.16c0,2.12.12,4.24.2,6.36,0,.82.15,1.63.11,2.44a2.55,2.55,0,0,1-2.45,2.57c-1.71.1-3.43.14-5.14.09a4.08,4.08,0,0,1-3.71-3.3,63.61,63.61,0,0,1-.84-9.25c-.23-5.87-.66-11.73-.65-17.62a124.38,124.38,0,0,0-.8-14.17,16.65,16.65,0,0,0-3.14-7.87,9.11,9.11,0,0,0-6-3.84,19.89,19.89,0,0,0-11.52,1.18,8.87,8.87,0,0,0-5.44,6.2c-.17.64-.33,1.27-.44,1.91a29.39,29.39,0,0,0-.4,4.88c0,4.4-.06,8.81-.12,13.22a3.74,3.74,0,0,1-.29,1.92c-.17.29-.41.68-.71.53-.75-.38-1.21,0-1.75.43a3.54,3.54,0,0,1-4.13,0,4.91,4.91,0,0,1-2.32-4.08c-.22-2-.38-4.07-.46-6.11a60.31,60.31,0,0,0-.58-6.83,10.13,10.13,0,0,0-1.29-3.92,3.08,3.08,0,0,0-3.35-1.48A3.7,3.7,0,0,0,90,212.63a9.72,9.72,0,0,0-1.77,3.46,29.27,29.27,0,0,0-.93,7.51c-.07,4.42.37,8.81.69,13.2.16,2.11.46,4.22.79,6.32a18.34,18.34,0,0,0,3,7.67,8.47,8.47,0,0,0,4.39,3.34c2.17.75,4.46,1,6.66,1.61a1.05,1.05,0,0,0,.69-.1c.62-.33,1.06-.06,1.54.32a1.72,1.72,0,0,1,.83,1.41c0,.41,0,.82,0,1.22-.11,6.3.34,12.57.74,18.84.35,5.55.35,11.1.18,16.65a7,7,0,0,1-.12,1.21,3.15,3.15,0,0,1-.39.88.85.85,0,0,1-1.28.09,2.41,2.41,0,0,1-.68-1.77c-.2-2.36-.34-4.73-.59-7.08-.63-6.09-.86-12.21-1.24-18.32-.17-2.77-.13-5.55-.19-8.32,0-.56-.26-.95-.86-1a17.05,17.05,0,0,1-4.54-.93,14.66,14.66,0,0,1-8.2-5.84,23.54,23.54,0,0,1-3.85-11A142.16,142.16,0,0,1,83.79,221.54Z"/><path class="cls-10" d="M93.49,224.69c.07-.18.34-.42.51-.41a.69.69,0,0,1,.52.41,4,4,0,0,1-.7,3.71A4.12,4.12,0,0,1,93.49,224.69Z"/><path class="cls-10" d="M97,243.8c-.35,0-.55-.25-.67-.55a9.6,9.6,0,0,1,0-5.69.7.7,0,0,1,.51-.43c.38-.07.59.29.62.57.11.79.12,1.6.17,2.49s-.14,2-.25,3C97.3,243.44,97.12,243.78,97,243.8Z"/><path class="cls-10" d="M105.75,248.32c-.1.06-.35.05-.4,0a5.53,5.53,0,0,1-.72-2.24c.17-1.63.3-3,.46-4.36a.6.6,0,0,1,.67-.54.73.73,0,0,1,.54.39,9.36,9.36,0,0,1-.27,6.39A.93.93,0,0,1,105.75,248.32Z"/><path class="cls-10" d="M111,217.55c.55,0,.64.68.68,1.13a15.82,15.82,0,0,1-.42,5.78,9.56,9.56,0,0,1-1-5.86C110.32,218.14,110.33,217.5,111,217.55Z"/><path class="cls-10" d="M112.92,286.18a1,1,0,0,1,.66.9.89.89,0,0,1-1,.79c-.31,0-.68-.13-.66-.55C111.92,286.73,112.49,286.13,112.92,286.18Z"/><path class="cls-10" d="M114.75,271.48a.79.79,0,0,1,.72.54,1.66,1.66,0,0,1,.13.69,7.62,7.62,0,0,1-.26,1.17c-.23.84-.48,1.69-.76,2.52,0,.1-.24.17-.38.2s-.31-.05-.33-.26c-.05-.47-.1-.95-.14-1.31a6.17,6.17,0,0,1,.47-3.16A.58.58,0,0,1,114.75,271.48Z"/><path class="cls-10" d="M119.2,256.59c0-1,0-1.93,0-2.9,0-.21,0-.48.35-.56a.6.6,0,0,1,.73.46,13.63,13.63,0,0,1,.59,6.9c-.14.66,0,1.48-.68,2-1-.37-.47-1.36-.74-2C119,259.21,119.23,257.88,119.2,256.59Z"/><path class="cls-10" d="M122.75,221.93c.35,0,.46.42.49.72.13,1.29.21,2.57.3,3.59a14.21,14.21,0,0,0-.09,3.41c0,.2.07.48-.26.57s-.45-.13-.51-.34c-.26-.94-.46-1.89-.72-2.81a8.53,8.53,0,0,1,.16-4.54C122.21,222.2,122.39,221.88,122.75,221.93Z"/><path class="cls-10" d="M128.91,216.78a.76.76,0,0,1,.76-.49.78.78,0,0,1,.71.83c.06,2.34.1,4.67-1.17,6.83a7.24,7.24,0,0,1-1.18-3.9A8,8,0,0,1,128.91,216.78Z"/><path class="cls-10" d="M128.9,284.68c.07-.19.3-.43.47-.44a.69.69,0,0,1,.54.37,11.29,11.29,0,0,1-.32,8.07c-.05.1-.28.12-.5.2a22.73,22.73,0,0,1-.47-7A4.41,4.41,0,0,1,128.9,284.68Z"/><path class="cls-10" d="M129.7,249.66c-.18-.13-.51-.26-.53-.41a41,41,0,0,1-.38-4.82,8.62,8.62,0,0,1,.55-3.32c.11-.29.26-.64.65-.61s.64.46.66.85c0,.64,0,1.28,0,1.92,0,2-.58,4-.72,6C129.93,249.41,129.78,249.54,129.7,249.66Z"/><path class="cls-10" d="M130.86,264.71a.52.52,0,0,1,.51-.42.5.5,0,0,1,.51.43,7.51,7.51,0,0,1-.78,5.88A8.85,8.85,0,0,1,130.86,264.71Z"/><path class="cls-10" d="M154.93,263.65c-.17.5-.82.89-1.13.73s-.3-.7-.36-1.17c.18-1.12.38-2.32.59-3.53a.61.61,0,0,1,.32-.31.47.47,0,0,1,.61.25A4.81,4.81,0,0,1,154.93,263.65Z"/><path class="cls-10" d="M154.48,254.93c-1-.25-.54-1.18-.83-1.75a5.51,5.51,0,0,1-.2-1.63c.24-1.24.5-2.66.79-4.08,0-.1.24-.22.37-.23a.49.49,0,0,1,.38.2,3.67,3.67,0,0,1,.35,1.14,14,14,0,0,1-.38,4.56C154.8,253.73,155,254.43,154.48,254.93Z"/><path class="cls-10" d="M140.58,295.51c-5.52-.39-11.4-.39-17-.43h-.37c-6,0-12.23-.07-18.23.18-.77,0-4.58-.13-4.63,1.16s3.86,1.13,4.63,1.16c6,.25,12.19.24,18.21.27h.38c5.6,0,11.3.11,16.9,0,.5,0,2.78.13,3-.56h.08c.16-.1.28-.13.3-.37a.46.46,0,0,0-.23-.43h0C143.51,295.61,141.16,295.56,140.58,295.51Z"/><path class="cls-10" d="M99.17,295.81a2.43,2.43,0,0,0-1.2-.3h0a3,3,0,0,0-1.29.12c-.05,0-.32-.08-.33.8s.28.77.33.8a3.87,3.87,0,0,0,1.29.18h0a4.74,4.74,0,0,0,1.19,0s.2.09.22-.39h0a1.07,1.07,0,0,0,0-.25,1.85,1.85,0,0,0,0-.29h0C99.38,295.88,99.21,295.85,99.17,295.81Z"/><path class="cls-10" d="M148.14,295.81a2.43,2.43,0,0,0-1.2-.3h0a3,3,0,0,0-1.29.12c-.05,0-.32-.08-.33.8s.28.77.33.8a3.83,3.83,0,0,0,1.29.18h0a4.74,4.74,0,0,0,1.19,0s.2.09.22-.39h0a1.07,1.07,0,0,0,0-.25,1.85,1.85,0,0,0,0-.29h0C148.35,295.88,148.18,295.85,148.14,295.81Z"/><text class="cls-11" transform="translate(178.99 169.16)">ER<tspan class="cls-12" x="48.6" y="0">R</tspan><tspan class="cls-13" x="74.12" y="0">OR </tspan></text><text class="cls-14" transform="translate(183 253.9)">4</text><text class="cls-14" transform="translate(265.17 253.74)">4</text><text class="cls-14" transform="translate(225.77 253.74)">0</text><text class="cls-15" transform="translate(119.4 364.58) scale(1.13 1)"><tspan class="cls-16">P</tspan><tspan class="cls-17" x="13.5" y="0">A</tspan><tspan x="31.48" y="0">GE N</tspan><tspan class="cls-18" x="91.97" y="0">O</tspan><tspan x="111.97" y="0">T FOUND</tspan></text><text class="cls-19" transform="translate(123.5 384.87)"><tspan class="cls-20">P</tspan><tspan x="6.32" y="0">lease </tspan><tspan class="cls-21" x="34.26" y="0">c</tspan><tspan x="39.56" y="0">o</tspan><tspan class="cls-22" x="46.15" y="0">n</tspan><tspan x="52.76" y="0">ta</tspan><tspan class="cls-23" x="62.52" y="0">c</tspan><tspan x="68.05" y="0">t </tspan><tspan class="cls-24" x="74.57" y="0">y</tspan><tspan x="80.1" y="0">our </tspan><tspan class="cls-25" x="99.77" y="0">w</tspan><tspan x="108.48" y="0">ebmas</tspan><tspan class="cls-26" x="141.86" y="0">t</tspan><tspan x="145.76" y="0">er and </tspan><tspan class="cls-24" x="180" y="0">r</tspan><tspan x="183.8" y="0">epo</tspan><tspan class="cls-27" x="203.23" y="0">r</tspan><tspan x="207.44" y="0">t E</tspan><tspan class="cls-28" x="219.86" y="0">r</tspan><tspan class="cls-24" x="223.83" y="0">r</tspan><tspan x="227.64" y="0">ors</tspan><tspan x="46.64" y="14.4">or </tspan><tspan class="cls-22" x="59.69" y="14.4">w</tspan><tspan x="68.48" y="14.4">ait </tspan><tspan class="cls-29" x="83.59" y="14.4">f</tspan><tspan x="86.93" y="14.4">or the de</tspan><tspan class="cls-24" x="131.96" y="14.4">v</tspan><tspan x="137.61" y="14.4">eloper fix it! </tspan></text></g></svg>